<svg xmlns="http://www.w3.org/2000/svg" fill="none" viewBox="0 0 512 512"><path stroke="#000" stroke-width="4" d="M17.999975 17.999995H494.00002V494H17.999975Z"/><circle cx="448.00003" cy="63.999996" r="22" stroke="#000" stroke-width="4"/><circle cx="69.999969" cy="442.00003" r="27.964233" stroke="#000" stroke-width="4.07153"/><circle cx="129.99997" cy="442.00003" r="27.964233" stroke="#000" stroke-width="4.07153"/><circle cx="189.99997" cy="442.00003" r="27.964233" stroke="#000" stroke-width="4.07153"/><circle cx="249.99997" cy="442.00003" r="27.964233" stroke="#000" stroke-width="4.07153"/><path stroke="#000" stroke-width="4.07187" d="M414.03589 264.03598h55.928127v55.928127H414.03589z"/><circle cx="309.99997" cy="442.00003" r="27.964233" stroke="#000" stroke-width="4.07153"/><circle cx="369.99997" cy="442.00003" r="27.964233" stroke="#000" stroke-width="4.07153"/><circle cx="69.999969" cy="382.00003" r="27.964233" stroke="#000" stroke-width="4.07153"/><circle cx="129.99995" cy="382.00003" r="27.964233" stroke="#000" stroke-width="4.07153"/><circle cx="189.99995" cy="382.00003" r="27.964233" stroke="#000" stroke-width="4.07153"/><circle cx="249.99995" cy="382.00003" r="27.964233" stroke="#000" stroke-width="4.07153"/><circle cx="309.99994" cy="382.00003" r="27.964233" stroke="#000" stroke-width="4.07153"/><circle cx="369.99994" cy="382.00003" r="27.964233" stroke="#000" stroke-width="4.07153"/><circle cx="69.999969" cy="322.00003" r="27.964233" stroke="#000" stroke-width="4.07153"/><circle cx="129.99997" cy="322.00003" r="27.964233" stroke="#000" stroke-width="4.07153"/><circle cx="189.99997" cy="322.00003" r="27.964233" stroke="#000" stroke-width="4.07153"/><circle cx="249.99997" cy="322.00003" r="27.964233" stroke="#000" stroke-width="4.07153"/><circle cx="309.99997" cy="322.00003" r="27.964233" stroke="#000" stroke-width="4.07153"/><circle cx="369.99997" cy="322.00003" r="27.964233" stroke="#000" stroke-width="4.07153"/><circle cx="69.999969" cy="262.00003" r="27.964233" stroke="#000" stroke-width="4.07153"/><circle cx="129.99995" cy="262.00003" r="27.964233" stroke="#000" stroke-width="4.07153"/><circle cx="189.99995" cy="262.00003" r="27.964233" stroke="#000" stroke-width="4.07153"/><circle cx="249.99995" cy="262.00003" r="27.964233" stroke="#000" stroke-width="4.07153"/><circle cx="309.99994" cy="262.00003" r="27.964233" stroke="#000" stroke-width="4.07153"/><circle cx="369.99994" cy="262.00003" r="27.964233" stroke="#000" stroke-width="4.07153"/><circle cx="69.999969" cy="202.00003" r="27.964233" stroke="#000" stroke-width="4.07153"/><circle cx="129.99997" cy="202.00003" r="27.964233" stroke="#000" stroke-width="4.07153"/><circle cx="189.99997" cy="202.00003" r="27.964233" stroke="#000" stroke-width="4.07153"/><circle cx="249.99997" cy="202.00003" r="27.964233" stroke="#000" stroke-width="4.07153"/><circle cx="309.99997" cy="202.00003" r="27.964233" stroke="#000" stroke-width="4.07153"/><circle cx="369.99997" cy="202.00003" r="27.964233" stroke="#000" stroke-width="4.07153"/><circle cx="69.999969" cy="142.00003" r="27.964233" stroke="#000" stroke-width="4.07153"/><circle cx="129.99995" cy="142.00003" r="27.964233" stroke="#000" stroke-width="4.07153"/><circle cx="189.99995" cy="142.00003" r="27.964233" stroke="#000" stroke-width="4.07153"/><circle cx="249.99995" cy="142.00003" r="27.964233" stroke="#000" stroke-width="4.07153"/><circle cx="309.99994" cy="142.00003" r="27.964233" stroke="#000" stroke-width="4.07153"/><circle cx="369.99994" cy="142.00003" r="27.964233" stroke="#000" stroke-width="4.07153"/></svg>